<?xml version="1.0" encoding="UTF-8"?>
<svg version="1.1" xmlns="http://www.w3.org/2000/svg" width="500" height="500">
<path d="M0 0 C17 0 17 0 25 1 C25.33 34.33 25.66 67.66 26 102 C32.54824168 90.80840627 32.54824168 90.80840627 33.87060547 79.46191406 C33.87977493 78.6033078 33.8889444 77.74470154 33.89839172 76.8600769 C33.92035045 74.07762983 33.8941514 71.29798751 33.8671875 68.515625 C33.87404601 66.56360531 33.88412147 64.61159454 33.89724731 62.65960693 C33.92364591 57.56348271 33.90967145 52.46829846 33.88592529 47.37219238 C33.8641433 41.14741076 33.88842193 34.92266755 33.90797615 28.69790268 C33.92262072 23.86408313 33.92969476 19.03066314 33.91378784 14.19683838 C33.91248367 13.31462616 33.9111795 12.43241394 33.90983582 11.52346802 C33.90718253 9.87050266 33.90072349 8.21753762 33.88987732 6.56460571 C33.8890375 4.70937415 33.93892825 2.85422628 34 1 C34.33 0.67 34.66 0.34 35 0 C42.92 0 50.84 0 59 0 C59.33 17.82 59.66 35.64 60 54 C62.64 51.36 65.28 48.72 68 46 C70.66124649 43.78360297 73.30395339 41.64559001 76.0625 39.5625 C76.79782959 39.0053833 77.53315918 38.4482666 78.29077148 37.87426758 C85.23206212 32.69646013 92.41154696 28.16102494 100 24 C100.61633301 23.65630371 101.23266602 23.31260742 101.86767578 22.95849609 C123.17113861 11.2065729 148.08764864 3.94575386 172.48828125 3.796875 C173.26512772 3.78981537 174.04197418 3.78275574 174.84236145 3.77548218 C226.76175394 3.41067175 267.38077038 18.89160944 306 54 C306.33 36.18 306.66 18.36 307 0 C314.92 0 322.84 0 331 0 C332.78940027 1.78940027 332.11756324 4.20497221 332.12123108 6.58682251 C332.11572487 7.78980484 332.11572487 7.78980484 332.11010742 9.01708984 C332.11065044 10.76077272 332.11123748 12.50445558 332.11186218 14.24813843 C332.11043402 15.17828136 332.10900585 16.1084243 332.10753441 17.06675339 C332.10402157 21.98856855 332.12982666 26.91026849 332.15039062 31.83203125 C332.17467017 38.09726419 332.19050229 44.36216817 332.17504883 50.62744141 C332.16333607 55.6863677 332.18092949 60.74447376 332.21749306 65.80327225 C332.22607158 67.72559472 332.22408491 69.64799642 332.210989 71.57029343 C332.14293692 82.37614296 332.1656411 90.99898959 339 100 C339.01030746 98.76194107 339.02061493 97.52388214 339.03123474 96.24830627 C339.12878746 84.60809571 339.23150384 72.96794077 339.33933926 61.32782078 C339.39461717 55.34283395 339.44804481 49.35784228 339.49731445 43.37280273 C339.54488636 37.60212227 339.59722629 31.83150332 339.65294075 26.06089592 C339.67339692 23.85398824 339.69210447 21.64706366 339.70907402 19.44012642 C339.73304608 16.36049384 339.7631101 13.28097874 339.79467773 10.20141602 C339.8004332 9.27928818 339.80618866 8.35716034 339.81211853 7.40708923 C339.88594784 1.11405216 339.88594784 1.11405216 341 0 C342.76859193 -0.09946453 344.54111451 -0.13080217 346.3125 -0.1328125 C347.38757813 -0.13410156 348.46265625 -0.13539062 349.5703125 -0.13671875 C350.70210938 -0.13285156 351.83390625 -0.12898438 353 -0.125 C354.69769531 -0.13080078 354.69769531 -0.13080078 356.4296875 -0.13671875 C357.50476563 -0.13542969 358.57984375 -0.13414063 359.6875 -0.1328125 C360.68136719 -0.13168457 361.67523438 -0.13055664 362.69921875 -0.12939453 C365 0 365 0 366 1 C366.09881747 2.93397489 366.12632227 4.87160777 366.12698364 6.80810547 C366.12980347 8.07015808 366.13262329 9.33221069 366.13552856 10.63250732 C366.13358397 12.04406752 366.13153578 13.45562758 366.12939453 14.8671875 C366.13074852 16.34352664 366.13252844 17.81986545 366.13470459 19.29620361 C366.13927919 23.31675284 366.13748926 27.33727653 366.1343255 31.35782623 C366.13180204 35.55609712 366.1341394 39.75436575 366.13571167 43.95263672 C366.13753341 51.00423579 366.13512695 58.05582439 366.13037109 65.10742188 C366.12492847 73.2718305 366.12669112 81.43621416 366.1321975 89.60062218 C366.13672852 96.59762982 366.13737923 103.59462993 366.13475883 110.59163857 C366.13319599 114.77624547 366.13300247 118.96084062 366.13629532 123.14544678 C366.13917387 127.07863286 366.13719864 131.01178661 366.13140106 134.94496918 C366.13007338 136.3926259 366.13046772 137.84028532 366.13266373 139.28794098 C366.13537487 141.25592454 366.13138073 143.22391402 366.12698364 145.19189453 C366.12660662 146.2958255 366.12622959 147.39975647 366.12584114 148.53713989 C366 151 366 151 365 152 C363.31391034 152.07205511 361.62499341 152.08386068 359.9375 152.0625 C359.01839844 152.05347656 358.09929687 152.04445312 357.15234375 152.03515625 C356.44207031 152.02355469 355.73179687 152.01195312 355 152 C355.24012817 153.5005896 355.24012817 153.5005896 355.48510742 155.03149414 C359.18521486 181.06773044 355.99538983 209.41435977 347 234 C346.57074219 235.20140625 346.14148438 236.4028125 345.69921875 237.640625 C337.55708012 259.20009068 325.58998329 279.05977682 309.42285156 295.53759766 C307.94222327 297.05938274 306.49844986 298.61122041 305.0546875 300.16796875 C292.43232781 313.54839198 277.28545727 323.60057552 261 332 C259.83726562 332.61359375 258.67453125 333.2271875 257.4765625 333.859375 C241.77010358 341.69526841 224.35019896 346.53224741 207 349 C206.35933594 349.0928125 205.71867188 349.185625 205.05859375 349.28125 C158.16246609 355.34914082 111.74948459 341.33904383 74.59106445 312.72241211 C70.03316147 309.13274319 65.96534857 305.22271494 62 301 C61.175 300.175 60.35 299.35 59.5 298.5 C58.675 297.675 57.85 296.85 57 296 C56.16082031 295.23042969 56.16082031 295.23042969 55.3046875 294.4453125 C33.171875 273.5669914 19.92960947 243.09281044 13 214 C12.82210937 213.28360352 12.64421875 212.56720703 12.4609375 211.82910156 C8.90738688 196.87457604 9.65533925 181.27950946 9.796875 166.01171875 C9.80127594 165.29364548 9.80567688 164.5755722 9.81021118 163.83573914 C9.86641515 159.79614646 10.22687508 155.96517026 11 152 C7.37 152 3.74 152 0 152 C0 101.84 0 51.68 0 0 Z " fill="#E0BB04" transform="translate(67,72)"/>
<path d="M0 0 C0.33 0 0.66 0 1 0 C1 18.15 1 36.3 1 55 C8.92 55 16.84 55 25 55 C25 39.16 25 23.32 25 7 C37.54 7 50.08 7 63 7 C61.40989489 10.18021021 59.71551793 12.88400344 57.67431641 15.76953125 C39.91187138 41.13491686 35.19317744 69.89385851 38.5625 100.4375 C43.72162054 129.29971282 60.50586497 155.63902699 84.46484375 172.43334961 C103.08603445 184.95700332 124.69329496 192.43474162 147.1875 192.3125 C148.28392822 192.30686035 149.38035645 192.3012207 150.51000977 192.29541016 C175.88298947 191.91829722 201.93058944 183.05689492 221 166 C222.24136719 164.95392578 222.24136719 164.95392578 223.5078125 163.88671875 C243.91645098 146.31781437 257.85782035 119.99251374 260 93 C261.8407768 61.92666498 255.27096201 33.8247023 235.21484375 9.5390625 C234 8 234 8 234 7 C246.87 7 259.74 7 273 7 C273 22.84 273 38.68 273 55 C280.92 55 288.84 55 297 55 C297 36.85 297 18.7 297 0 C306.09730391 12.12973855 306.81188432 22.20160456 306.375 36.8125 C306.34482991 38.58393849 306.31746667 40.35542711 306.29296875 42.12695312 C306.22760449 46.41923198 306.12448651 50.70904564 306 55 C309.3 55 312.6 55 316 55 C323.06891515 97.35037559 313.11329896 142.17755869 288.125 177.3125 C276.68098047 192.93427879 263.57287512 206.49838406 248 218 C247.42008301 218.42958008 246.84016602 218.85916016 246.24267578 219.30175781 C218.59019818 239.47618545 184.70592207 249.4074238 150.69726562 249.31567383 C148.26646665 249.31252136 145.8368992 249.33604977 143.40625 249.36132812 C108.12486774 249.50452116 73.79714466 236.50804068 46 215 C45.071875 214.29488281 44.14375 213.58976563 43.1875 212.86328125 C18.45850679 193.41795374 1.18022395 168.20654547 -10 139 C-10.47179687 137.7934375 -10.94359375 136.586875 -11.4296875 135.34375 C-20.59955237 110.055427 -23.04100556 82.46527918 -18 56 C-15.36 55.67 -12.72 55.34 -10 55 C-10.01683838 54.00895264 -10.03367676 53.01790527 -10.05102539 51.99682617 C-10.52738479 15.73790858 -10.52738479 15.73790858 0 0 Z " fill="#020100" transform="translate(101,168)"/>
<path d="M0 0 C1.23778702 -0.01995026 2.47557404 -0.03990051 3.75086975 -0.06045532 C5.11994883 -0.06224687 6.48902857 -0.06357404 7.85810852 -0.06448364 C9.30222282 -0.07972972 10.7463209 -0.09658523 12.19039917 -0.1149292 C16.11216048 -0.15881615 20.03360992 -0.17641694 23.95558906 -0.18658209 C26.40806056 -0.19387208 28.86045058 -0.20635378 31.31289101 -0.22058487 C39.87552598 -0.26958043 48.43791869 -0.2956773 57.00068665 -0.30276489 C64.97082517 -0.3100284 72.93941991 -0.36975998 80.90908688 -0.45357406 C87.75941103 -0.52307917 94.60922505 -0.55386348 101.45989925 -0.55525696 C105.54810701 -0.55683993 109.63474358 -0.57418462 113.72258568 -0.63125229 C117.57217343 -0.68379055 121.41889842 -0.68793876 125.26868248 -0.65594101 C126.67595694 -0.65232467 128.08339914 -0.66558291 129.49031448 -0.69757843 C140.06942786 -0.92335999 140.06942786 -0.92335999 144.76662636 2.73133469 C147.05445215 5.23638092 149.03996056 7.75550839 150.96089172 10.54830933 C151.42583385 11.16834902 151.89077597 11.78838871 152.36980724 12.42721748 C169.56151737 35.9637768 174.9900445 63.3195497 171.48432922 92.07174683 C168.2966216 110.39146416 159.11966873 128.59771255 146.96089172 142.54830933 C146.48264954 143.15803589 146.00440735 143.76776245 145.51167297 144.39596558 C135.49901667 156.99068224 120.59480368 165.44840214 105.96089172 171.54830933 C99.69160424 166.82119951 97.6060703 163.54841649 96.33589172 155.67330933 C96.21214172 154.64205933 96.08839172 153.61080933 95.96089172 152.54830933 C89.44754794 155.89802899 85.93163417 160.98140497 82.96089172 167.54830933 C82.05409408 165.06447231 81.83784229 163.89052143 82.74604797 161.36471558 C85.94112958 155.72691103 89.02174288 151.51788375 94.96089172 148.54830933 C94.96089172 143.59830933 94.96089172 138.64830933 94.96089172 133.54830933 C93.31089172 133.87830933 91.66089172 134.20830933 89.96089172 134.54830933 C90.82714172 133.57893433 91.69339172 132.60955933 92.58589172 131.61080933 C101.09806961 121.57645375 105.49605197 110.78480398 109.28511047 98.25534058 C109.96089172 96.54830933 109.96089172 96.54830933 111.96089172 94.54830933 C113.94917297 94.31784058 113.94917297 94.31784058 116.27339172 94.36080933 C117.03264954 94.36725464 117.79190735 94.37369995 118.57417297 94.38034058 C120.96089172 94.54830933 120.96089172 94.54830933 123.37886047 95.04440308 C126.27849153 95.61029174 129.00753784 95.75310493 131.96089172 95.79830933 C132.97151672 95.82409058 133.98214172 95.84987183 135.02339172 95.87643433 C138.37435761 95.50212431 140.1770937 94.38484274 142.96089172 92.54830933 C143.62089172 92.54830933 144.28089172 92.54830933 144.96089172 92.54830933 C144.96089172 91.88830933 144.96089172 91.22830933 144.96089172 90.54830933 C142.32089172 90.54830933 139.68089172 90.54830933 136.96089172 90.54830933 C136.96089172 90.21830933 136.96089172 89.88830933 136.96089172 89.54830933 C137.85292297 89.42713745 138.74495422 89.30596558 139.66401672 89.18112183 C140.83448547 89.0135437 142.00495422 88.84596558 143.21089172 88.67330933 C144.37104797 88.51088745 145.53120422 88.34846558 146.72651672 88.18112183 C149.54282485 87.63010502 151.51306729 86.99034451 153.96089172 85.54830933 C154.37512778 74.54804065 154.70608197 64.74825097 149.96089172 54.54830933 C149.32473938 53.15225464 149.32473938 53.15225464 148.67573547 51.72799683 C145.15070419 44.67793426 140.45311582 39.15560859 134.96089172 33.54830933 C134.25126282 32.68592651 134.25126282 32.68592651 133.52729797 31.80612183 C131.27962403 30.00125646 129.43280688 30.07150491 126.58589172 29.92330933 C122.94740782 29.71281852 119.52220034 29.33827233 115.96089172 28.54830933 C112.06887553 32.08422257 112.06887553 32.08422257 110.85151672 36.95065308 C111.11975881 39.18482726 111.46823041 41.35328367 111.96089172 43.54830933 C112.75753235 43.47612183 113.55417297 43.40393433 114.37495422 43.32955933 C115.96436829 43.19034058 115.96436829 43.19034058 117.58589172 43.04830933 C118.63003235 42.95549683 119.67417297 42.86268433 120.74995422 42.76705933 C123.83235961 42.55706577 126.87254401 42.51121206 129.96089172 42.54830933 C131.70186854 45.56531367 132.1936802 47.70409476 132.16401672 51.17330933 C132.17561829 52.04471558 132.18721985 52.91612183 132.19917297 53.81393433 C132.20698547 55.63685099 132.19917125 57.45990157 132.17573547 59.28268433 C132.22469471 61.82856466 132.33258328 64.07926677 132.96089172 66.54830933 C135.66138089 69.08488676 135.66138089 69.08488676 138.96089172 70.54830933 C140.27445961 71.60498018 141.57031834 72.68460475 142.83589172 73.79830933 C143.72921204 74.5794812 143.72921204 74.5794812 144.64057922 75.37643433 C145.07628235 75.76315308 145.51198547 76.14987183 145.96089172 76.54830933 C144.97089172 77.04330933 144.97089172 77.04330933 143.96089172 77.54830933 C143.4530011 77.13838745 142.94511047 76.72846558 142.42182922 76.30612183 C136.24253445 71.46914576 131.06718036 68.56996415 122.96089172 69.54830933 C115.6953706 72.42820402 111.43991221 78.41348074 106.96089172 84.54830933 C106.96089172 80.95080308 107.91334689 79.58955052 109.77339172 76.54830933 C110.29546204 75.68205933 110.81753235 74.81580933 111.35542297 73.92330933 C112.75423779 71.85401636 114.12428453 70.22497175 115.96089172 68.54830933 C110.04218252 66.57540626 103.28100004 66.67826871 97.46089172 68.86080933 C95.23570149 70.36281274 93.04969769 71.86119681 90.96089172 73.54830933 C91.62089172 71.56830933 92.28089172 69.58830933 92.96089172 67.54830933 C92.25964172 67.28018433 91.55839172 67.01205933 90.83589172 66.73580933 C87.79590933 65.48016442 84.88811432 64.0459581 81.96089172 62.54830933 C81.77526672 64.49737183 81.77526672 64.49737183 81.58589172 66.48580933 C81.37495422 68.70065308 81.37495422 68.70065308 80.96089172 70.54830933 C79.97089172 71.04330933 79.97089172 71.04330933 78.96089172 71.54830933 C79.07480804 68.94322297 79.20154721 66.33985386 79.33589172 63.73580933 C79.36682922 62.99782104 79.39776672 62.25983276 79.42964172 61.4994812 C79.6343532 57.72937818 79.82522999 55.75180192 81.96089172 52.54830933 C82.04802742 49.69606739 82.00834999 47.00928968 81.83589172 44.17330933 C81.8126886 43.4179187 81.78948547 42.66252808 81.76557922 41.88424683 C81.48703578 36.90528284 80.6283098 34.19481057 76.96089172 30.54830933 C73.39572241 27.87443234 69.23732425 28.0297121 64.96089172 28.54830933 C61.63329782 29.45283386 58.84224935 30.70663367 56.31245422 33.12252808 C54.32327255 36.69270675 54.31499535 40.08172168 54.14839172 44.11080933 C54.09747375 44.87844604 54.04655579 45.64608276 53.99409485 46.4369812 C53.79081826 50.38881594 53.71287516 52.17628448 55.96089172 55.54830933 C56.26155327 58.30248251 56.47014471 60.9747608 56.58589172 63.73580933 C56.6245636 64.48539917 56.66323547 65.23498901 56.70307922 66.0072937 C56.79717388 67.85390132 56.88011491 69.70107123 56.96089172 71.54830933 C56.30089172 71.21830933 55.64089172 70.88830933 54.96089172 70.54830933 C54.36733559 67.89970506 54.21879904 65.2563361 53.96089172 62.54830933 C53.33440735 62.90924683 52.70792297 63.27018433 52.06245422 63.64205933 C51.2451886 64.10612183 50.42792297 64.57018433 49.58589172 65.04830933 C48.77378235 65.51237183 47.96167297 65.97643433 47.12495422 66.45455933 C44.96089172 67.54830933 44.96089172 67.54830933 42.96089172 67.54830933 C43.29089172 69.19830933 43.62089172 70.84830933 43.96089172 72.54830933 C42.23563131 71.53919474 40.51037089 70.53008016 38.78511047 69.52096558 C35.09819425 67.55513658 32.00892972 67.38578222 27.89839172 67.36080933 C26.30317688 67.33953979 26.30317688 67.33953979 24.67573547 67.31784058 C21.81227492 67.2670862 21.81227492 67.2670862 19.96089172 69.54830933 C20.72401672 70.27018433 21.48714172 70.99205933 22.27339172 71.73580933 C24.68744382 74.26214291 26.43792063 76.41775763 27.96089172 79.54830933 C27.63089172 80.20830933 27.30089172 80.86830933 26.96089172 81.54830933 C26.4530011 80.93342651 25.94511047 80.3185437 25.42182922 79.68502808 C19.50277307 72.49427057 19.50277307 72.49427057 11.02339172 69.27877808 C3.19887728 68.87866086 -2.00707786 73.08460682 -8.03910828 77.54830933 C-8.69910828 77.21830933 -9.35910828 76.88830933 -10.03910828 76.54830933 C-8.24935671 75.06682601 -6.45724771 73.58819027 -4.66410828 72.11080933 C-3.6663739 71.28709839 -2.66863953 70.46338745 -1.64067078 69.61471558 C0.96089172 67.54830933 0.96089172 67.54830933 2.96089172 66.54830933 C2.98071106 65.96339722 3.0005304 65.37848511 3.02095032 64.77584839 C3.11642654 62.11622908 3.22601314 59.45737094 3.33589172 56.79830933 C3.36682922 55.8779187 3.39776672 54.95752808 3.42964172 54.00924683 C3.4683136 53.1197937 3.50698547 52.23034058 3.54682922 51.31393433 C3.57825012 50.49699097 3.60967102 49.68004761 3.64204407 48.83834839 C3.96089172 46.54830933 3.96089172 46.54830933 5.96089172 42.54830933 C11.90089172 42.87830933 17.84089172 43.20830933 23.96089172 43.54830933 C24.22901672 42.18705933 24.49714172 40.82580933 24.77339172 39.42330933 C24.92421204 38.6576062 25.07503235 37.89190308 25.23042297 37.10299683 C24.89757663 33.94819238 23.6901513 32.04870949 21.55879211 29.72067261 C19.273198 28.04375543 17.10908262 27.97993875 14.33979797 28.22116089 C13.31692688 28.38309937 13.31692688 28.38309937 12.27339172 28.54830933 C11.20991516 28.70638062 11.20991516 28.70638062 10.12495422 28.86764526 C1.82791485 30.47340197 -2.47810445 35.38624601 -7.16313171 42.17770386 C-14.39684925 53.09145673 -18.33093652 64.109744 -18.47660828 77.23580933 C-18.48692078 78.02697144 -18.49723328 78.81813354 -18.50785828 79.63327026 C-18.5067442 82.11864417 -18.5067442 82.11864417 -18.03910828 85.54830933 C-14.62699412 87.8230521 -12.38225538 88.11460577 -8.35160828 88.67330933 C-7.17211609 88.84088745 -5.9926239 89.00846558 -4.77738953 89.18112183 C-3.42194031 89.36287964 -3.42194031 89.36287964 -2.03910828 89.54830933 C-2.03910828 89.87830933 -2.03910828 90.20830933 -2.03910828 90.54830933 C-4.34910828 90.54830933 -6.65910828 90.54830933 -9.03910828 90.54830933 C-9.03910828 91.20830933 -9.03910828 91.86830933 -9.03910828 92.54830933 C-7.86348328 93.01237183 -7.86348328 93.01237183 -6.66410828 93.48580933 C-4.03910828 94.54830933 -4.03910828 94.54830933 -2.03910828 95.54830933 C-0.08273314 95.64527253 1.87712103 95.6780985 3.83589172 95.67330933 C4.8851886 95.67588745 5.93448547 95.67846558 7.01557922 95.68112183 C9.55121419 95.56678285 11.53318293 95.19079387 13.96089172 94.54830933 C15.64380754 94.3861326 17.33337359 94.28424122 19.02339172 94.23580933 C19.88061829 94.19842651 20.73784485 94.1610437 21.62104797 94.12252808 C23.96089172 94.54830933 23.96089172 94.54830933 25.62495422 96.09518433 C27.36886932 99.29746118 28.30493459 102.61895372 29.27339172 106.11080933 C32.59790124 117.27771909 37.14091889 125.73569379 45.96089172 133.54830933 C45.30089172 133.87830933 44.64089172 134.20830933 43.96089172 134.54830933 C42.97089172 134.21830933 41.98089172 133.88830933 40.96089172 133.54830933 C40.79839718 135.9676725 40.67991355 138.37612792 40.58589172 140.79830933 C40.53561829 141.48022339 40.48534485 142.16213745 40.43354797 142.86471558 C40.30405462 145.1646557 40.30405462 145.1646557 40.96089172 148.54830933 C43.73580514 150.84271764 43.73580514 150.84271764 46.96089172 152.54830933 C50.8188196 156.99665384 53.65319664 161.54825522 53.96089172 167.54830933 C46.96089172 158.44830933 46.96089172 158.44830933 46.96089172 155.54830933 C44.62875024 154.34202925 42.46447034 153.38283553 39.96089172 152.54830933 C39.8861261 153.33334839 39.81136047 154.11838745 39.73432922 154.92721558 C38.79876913 162.40252415 37.4242675 166.32247163 31.96089172 171.54830933 C20.34356971 169.81113968 9.7839217 161.79843145 0.96089172 154.54830933 C-0.33461609 153.50030151 -0.33461609 153.50030151 -1.65629578 152.43112183 C-17.08443955 139.30999021 -27.85766106 121.01429534 -33.03910828 101.54830933 C-33.35750671 100.35463745 -33.67590515 99.16096558 -34.00395203 97.93112183 C-40.01641716 71.27678331 -35.95193465 42.93828052 -21.60160828 19.61080933 C-18.04910928 14.36207207 -14.18409337 9.34281786 -10.03910828 4.54830933 C-9.46459018 3.85442045 -8.89007208 3.16053158 -8.29814434 2.44561577 C-5.37976912 -0.00545271 -3.78029029 0.03267627 0 0 Z " fill="#020202" transform="translate(182.0391082763672,174.45169067382813)"/>
<path d="M0 0 C0.99386719 0.02707031 1.98773438 0.05414063 3.01171875 0.08203125 C3.77097656 0.11683594 4.53023437 0.15164062 5.3125 0.1875 C4.508125 1.074375 3.70375 1.96125 2.875 2.875 C-14.00333548 22.73186526 -24.1428332 46.09369179 -24 72.375 C-23.99154053 74.01855469 -23.99154053 74.01855469 -23.98291016 75.6953125 C-23.61028233 100.75361148 -15.00140487 123.21010046 1.3125 142.1875 C1.84101563 142.86039063 2.36953125 143.53328125 2.9140625 144.2265625 C13.22653475 156.97745183 28.27851852 165.34956218 43.3125 171.1875 C43.580625 170.589375 43.84875 169.99125 44.125 169.375 C45.3125 167.1875 45.3125 167.1875 46.83203125 165.82421875 C48.97119616 163.45928446 49.3039287 161.08260146 50 158 C50.25136719 156.91332031 50.50273437 155.82664062 50.76171875 154.70703125 C50.94347656 153.87558594 51.12523437 153.04414063 51.3125 152.1875 C56.16294328 153.14320175 58.63989783 155.88158244 61.51953125 159.8515625 C62.47707579 161.27942043 63.39828095 162.73152151 64.3125 164.1875 C60.7637764 156.0588607 60.7637764 156.0588607 54.3125 150.1875 C52.8275 149.1975 52.8275 149.1975 51.3125 148.1875 C50.984375 145.47265625 50.984375 145.47265625 51.0625 142.25 C51.07796875 141.18910156 51.0934375 140.12820313 51.109375 139.03515625 C51.3125 136.1875 51.3125 136.1875 52.3125 133.1875 C53.6325 133.1875 54.9525 133.1875 56.3125 133.1875 C55.81621094 132.77242187 55.31992188 132.35734375 54.80859375 131.9296875 C45.10875613 123.13173232 41.04028683 111.26079995 37.2578125 99.07421875 C36.59712726 96.32148197 36.59712726 96.32148197 35.3125 95.1875 C33.71086084 95.08830923 32.10470082 95.05780102 30.5 95.0625 C29.62730469 95.05992187 28.75460938 95.05734375 27.85546875 95.0546875 C25.50209511 95.17759795 23.58498506 95.61720202 21.3125 96.1875 C13.89947691 96.82529183 8.3102323 96.8524029 2.3125 92.1875 C1.9825 91.1975 1.6525 90.2075 1.3125 89.1875 C-1.00597874 88.4708793 -3.34069703 87.80507973 -5.6875 87.1875 C-8.26171491 84.61328509 -7.99810549 82.78875841 -8.06787109 79.27172852 C-8.02595986 60.56979166 -1.78641384 46.54839212 11.3125 33.1875 C12.26962891 32.07761719 12.26962891 32.07761719 13.24609375 30.9453125 C15.84230929 28.73681156 17.37962436 28.63556296 20.75 28.5 C24.37819282 28.32338422 27.76300738 27.97985498 31.3125 27.1875 C33.50825114 29.39598013 35.56007645 31.60724447 37.3125 34.1875 C37.25 36.875 37.25 36.875 36.3125 39.1875 C35.9825 40.5075 35.6525 41.8275 35.3125 43.1875 C29.3725 43.1875 23.4325 43.1875 17.3125 43.1875 C16.36041817 46.0437455 16.22370546 47.69563737 16.27734375 50.64453125 C16.27154297 51.51013672 16.26574219 52.37574219 16.25976562 53.26757812 C16.2532967 55.0775823 16.27378875 56.88789918 16.32226562 58.69726562 C16.21105718 65.2198825 16.21105718 65.2198825 13.60986328 68.02099609 C11.56754485 69.52728288 9.47066792 70.85502949 7.3125 72.1875 C5.94542796 73.48621844 4.59147723 74.80194134 3.3125 76.1875 C4.34310547 75.44693359 4.34310547 75.44693359 5.39453125 74.69140625 C6.29558594 74.05074219 7.19664062 73.41007812 8.125 72.75 C9.01832031 72.11191406 9.91164062 71.47382813 10.83203125 70.81640625 C15.09974699 68.01382757 19.31189539 67.40923059 24.3125 68.1875 C30.35023225 70.70416223 34.4161832 75.06620481 38.3125 80.1875 C36.18043788 75.51510855 34.28747544 71.59462181 30.3125 68.1875 C34.98774412 65.07067059 39.83496292 65.71334627 45.3125 66.1875 C48.93360004 67.15188231 51.63012183 68.50512183 54.3125 71.1875 C54.3125 69.8675 54.3125 68.5475 54.3125 67.1875 C55.76787568 66.34901196 57.22690373 65.51686066 58.6875 64.6875 C59.49960938 64.2234375 60.31171875 63.759375 61.1484375 63.28125 C63.3125 62.1875 63.3125 62.1875 65.3125 62.1875 C66.3025 65.6525 66.3025 65.6525 67.3125 69.1875 C67.19847936 66.91608891 67.07091495 64.64535448 66.9375 62.375 C66.83308594 60.47814453 66.83308594 60.47814453 66.7265625 58.54296875 C66.55147061 55.05994766 66.55147061 55.05994766 64.3125 52.1875 C64.19886745 49.35251365 64.21928072 46.69471683 64.375 43.875 C64.38982422 43.12798828 64.40464844 42.38097656 64.41992188 41.61132812 C64.71737955 35.86888252 66.18445483 33.1984812 70.3125 29.1875 C74.75019947 27.01795804 79.43849136 26.38975807 84.3125 27.1875 C88.24016346 29.26249201 91.08982017 31.33862221 93.3125 35.1875 C93.8658303 38.03266708 94.00541404 40.85797229 94.125 43.75 C94.20137695 44.90145508 94.20137695 44.90145508 94.27929688 46.07617188 C94.48257347 50.02800661 94.56051657 51.81547515 92.3125 55.1875 C92.01258931 57.77635171 91.80384775 60.27899082 91.6875 62.875 C91.64882813 63.57689453 91.61015625 64.27878906 91.5703125 65.00195312 C91.4762666 66.73004655 91.3933032 68.45873675 91.3125 70.1875 C91.9725 67.5475 92.6325 64.9075 93.3125 62.1875 C97.36531712 63.41277029 100.75610764 64.88630494 104.3125 67.1875 C103.9825 68.8375 103.6525 70.4875 103.3125 72.1875 C104.240625 71.383125 105.16875 70.57875 106.125 69.75 C109.98840841 66.40171271 113.20928632 66.03115398 118.25 66 C119.29027344 65.98582031 120.33054687 65.97164063 121.40234375 65.95703125 C124.26296613 66.18357718 125.88920151 66.71016381 128.3125 68.1875 C127.92578125 68.6 127.5390625 69.0125 127.140625 69.4375 C123.25512217 73.7461764 120.71976392 77.9100368 118.3125 83.1875 C118.75980469 82.58421875 119.20710937 81.9809375 119.66796875 81.359375 C127.92704828 70.44118884 127.92704828 70.44118884 134.3125 68.1875 C141.74164678 67.31348273 147.50723741 70.12649075 153.375 74.4375 C154.014375 75.015 154.65375 75.5925 155.3125 76.1875 C152.54850815 73.25599349 150.19777697 71.11103892 146.68359375 69.14453125 C144.37884772 67.52112519 143.45879377 66.69384176 142.66870117 63.95922852 C142.43440589 61.30618658 142.39165584 58.72528168 142.4375 56.0625 C142.42218593 54.26820192 142.40407754 52.47392492 142.3828125 50.6796875 C142.39070801 49.88933105 142.39860352 49.09897461 142.40673828 48.28466797 C142.39948253 45.99291102 142.39948253 45.99291102 141.3125 43.1875 C135.3725 43.1875 129.4325 43.1875 123.3125 43.1875 C120.83181034 35.85818966 120.83181034 35.85818966 121.953125 31.9609375 C123.5304469 29.45519194 124.62010515 28.46649594 127.3125 27.1875 C134.36732938 26.45662891 140.54566305 27.3609158 146.51953125 31.3046875 C158.08536594 42.20730649 166.22086894 57.72094411 166.8203125 73.6496582 C166.83835937 74.507771 166.85640625 75.36588379 166.875 76.25 C166.91560547 77.50139771 166.91560547 77.50139771 166.95703125 78.77807617 C166.94225149 81.03129677 166.86848895 83.00344494 166.3125 85.1875 C163.953125 87.171875 163.953125 87.171875 161.3125 88.1875 C160.384375 88.579375 159.45625 88.97125 158.5 89.375 C157.778125 89.643125 157.05625 89.91125 156.3125 90.1875 C156.3125 90.8475 156.3125 91.5075 156.3125 92.1875 C150.12241436 96.68938046 144.83000084 96.81225143 137.3125 96.1875 C136.46558594 96.01734375 135.61867188 95.8471875 134.74609375 95.671875 C132.26043869 95.17713788 130.02966949 95.08724374 127.5 95.125 C126.70980469 95.13402344 125.91960937 95.14304687 125.10546875 95.15234375 C124.51378906 95.16394531 123.92210937 95.17554688 123.3125 95.1875 C121.01016593 99.51349946 119.42554336 103.75427164 118 108.4375 C114.79044966 118.43148564 110.19504693 126.14451429 102.3125 133.1875 C103.6325 133.1875 104.9525 133.1875 106.3125 133.1875 C107.9663951 138.14918529 108.27382508 143.03754422 107.3125 148.1875 C105.52202894 150.19526124 103.73082001 151.31203428 101.42578125 152.68359375 C97.79341999 155.26854585 95.99835166 159.13497196 94.3125 163.1875 C94.3125 163.8475 94.3125 164.5075 94.3125 165.1875 C94.61542969 164.66800781 94.91835938 164.14851562 95.23046875 163.61328125 C97.84010919 159.26923363 100.39123261 155.4896199 104.3125 152.1875 C105.3025 152.1875 106.2925 152.1875 107.3125 152.1875 C107.51552734 153.38246094 107.51552734 153.38246094 107.72265625 154.6015625 C109.24724231 162.10581244 110.9377314 165.93697861 117.3125 170.1875 C130.28509771 163.99836794 130.28509771 163.99836794 142.3125 156.1875 C143.63314453 155.20523438 143.63314453 155.20523438 144.98046875 154.203125 C164.45316535 139.05470999 177.28626273 115.11367587 181.92578125 91 C185.22224144 58.50156419 178.06899847 31.0917562 157.54003906 5.71142578 C156.08420215 3.90408011 154.68909556 2.05573683 153.3125 0.1875 C162.62139868 -0.85602423 162.62139868 -0.85602423 166.09765625 1.2890625 C167.74568947 3.15285495 169.01033047 5.06492876 170.3125 7.1875 C170.94800781 8.156875 171.58351563 9.12625 172.23828125 10.125 C189.03666949 36.44563844 195.91683138 65.95969871 189.9296875 96.98364258 C183.39991442 125.75897342 166.31126244 151.74554329 141.5 167.9375 C116.24774432 183.77112078 85.24891666 191.18743648 55.75 184.5625 C52.90721984 183.85811125 50.10853145 183.05831899 47.3125 182.1875 C46.62365723 181.97319336 45.93481445 181.75888672 45.22509766 181.53808594 C17.40950851 172.56868451 -6.13599786 153.2867103 -19.85205078 127.43994141 C-32.84977546 101.9966627 -37.74309309 72.0856579 -29.6875 44.1875 C-29.42066406 43.1975 -29.15382812 42.2075 -28.87890625 41.1875 C-24.74051341 27.35607149 -17.45679109 14.58584877 -8.6875 3.1875 C-8.2234375 2.5790625 -7.759375 1.970625 -7.28125 1.34375 C-4.8852605 -0.39451689 -2.90940349 -0.10268483 0 0 Z " fill="#F7F7F7" transform="translate(170.6875,174.8125)"/>
<path d="M0 0 C1.25289322 -0.00010574 1.25289322 -0.00010574 2.53109741 -0.00021362 C38.45842609 0.11587583 72.97661719 11.7986617 101.75 33.4375 C102.67554688 34.1284375 103.60109375 34.819375 104.5546875 35.53125 C109.78938113 39.56988603 113.29922317 43.24492703 117.75 48.4375 C40.2 48.4375 -37.35 48.4375 -117.25 48.4375 C-105.08486556 36.27236556 -91.72059302 26.08684877 -76.25 18.4375 C-75.13625 17.87546875 -74.0225 17.3134375 -72.875 16.734375 C-49.87199822 5.39687184 -25.58128542 -0.01555904 0 0 Z " fill="#010000" transform="translate(249.25,79.5625)"/>
<path d="M0 0 C3.97915159 -0.02886984 7.95827653 -0.04675406 11.9375 -0.0625 C13.07380859 -0.07087891 14.21011719 -0.07925781 15.38085938 -0.08789062 C16.46044922 -0.09111328 17.54003906 -0.09433594 18.65234375 -0.09765625 C20.15269165 -0.10551147 20.15269165 -0.10551147 21.68334961 -0.11352539 C24 0 24 0 25 1 C25.09881747 2.93397489 25.12632227 4.87160777 25.12698364 6.80810547 C25.12980347 8.07015808 25.13262329 9.33221069 25.13552856 10.63250732 C25.13358397 12.04406752 25.13153578 13.45562758 25.12939453 14.8671875 C25.13074852 16.34352664 25.13252844 17.81986545 25.13470459 19.29620361 C25.13927919 23.31675284 25.13748926 27.33727653 25.1343255 31.35782623 C25.13180204 35.55609712 25.1341394 39.75436575 25.13571167 43.95263672 C25.13753341 51.00423579 25.13512695 58.05582439 25.13037109 65.10742188 C25.12492847 73.2718305 25.12669112 81.43621416 25.1321975 89.60062218 C25.13672852 96.59762982 25.13737923 103.59462993 25.13475883 110.59163857 C25.13319599 114.77624547 25.13300247 118.96084062 25.13629532 123.14544678 C25.13917387 127.07863286 25.13719864 131.01178661 25.13140106 134.94496918 C25.13007338 136.3926259 25.13046772 137.84028532 25.13266373 139.28794098 C25.13537487 141.25592454 25.13138073 143.22391402 25.12698364 145.19189453 C25.12660662 146.2958255 25.12622959 147.39975647 25.12584114 148.53713989 C25 151 25 151 24 152 C22.31391034 152.07205511 20.62499341 152.08386068 18.9375 152.0625 C18.01839844 152.05347656 17.09929687 152.04445312 16.15234375 152.03515625 C15.44207031 152.02355469 14.73179687 152.01195312 14 152 C14.24012817 153.5005896 14.24012817 153.5005896 14.48510742 155.03149414 C18.18521486 181.06773044 14.99538983 209.41435977 6 234 C5.57074219 235.20140625 5.14148438 236.4028125 4.69921875 237.640625 C-3.44291988 259.20009068 -15.41001671 279.05977682 -31.57714844 295.53759766 C-33.05777673 297.05938274 -34.50155014 298.61122041 -35.9453125 300.16796875 C-48.56767219 313.54839198 -63.71454273 323.60057552 -80 332 C-81.74410156 332.92039062 -81.74410156 332.92039062 -83.5234375 333.859375 C-99.22989642 341.69526841 -116.64980104 346.53224741 -134 349 C-134.64066406 349.0928125 -135.28132812 349.185625 -135.94140625 349.28125 C-182.83753391 355.34914082 -229.25051541 341.33904383 -266.40893555 312.72241211 C-270.96683853 309.13274319 -275.03465143 305.22271494 -279 301 C-279.825 300.175 -280.65 299.35 -281.5 298.5 C-282.325 297.675 -283.15 296.85 -284 296 C-284.83917969 295.23042969 -284.83917969 295.23042969 -285.6953125 294.4453125 C-307.828125 273.5669914 -321.07039053 243.09281044 -328 214 C-328.26683594 212.92540527 -328.26683594 212.92540527 -328.5390625 211.82910156 C-332.09261312 196.87457604 -331.34466075 181.27950946 -331.203125 166.01171875 C-331.19872406 165.29364548 -331.19432312 164.5755722 -331.18978882 163.83573914 C-331.13358485 159.79614646 -330.77312492 155.96517026 -330 152 C-328.35 152 -326.7 152 -325 152 C-325.0721875 152.75796875 -325.144375 153.5159375 -325.21875 154.296875 C-329.01476856 200.9035473 -319.4169403 246.14066746 -288.95703125 282.7421875 C-285.36416414 286.88725175 -281.73354923 290.98075309 -278 295 C-277.37222656 295.70511719 -276.74445313 296.41023438 -276.09765625 297.13671875 C-264.40911339 309.65850427 -249.20123085 319.29633197 -234 327 C-233.3714209 327.32049316 -232.7428418 327.64098633 -232.09521484 327.97119141 C-212.75546144 337.7083065 -191.16438006 344.13549981 -169.3984375 344.16796875 C-168.5995108 344.17129715 -167.80058411 344.17462555 -166.97744751 344.17805481 C-165.29502939 344.18308708 -163.61260142 344.18546429 -161.93017578 344.18530273 C-159.40249455 344.18747636 -156.87525981 344.20563633 -154.34765625 344.22460938 C-111.10732832 344.37666409 -72.72698317 326.61608386 -41 298 C-40.25105469 297.32453125 -39.50210937 296.6490625 -38.73046875 295.953125 C-26.70373043 284.48975732 -16.64533603 269.8367295 -9 255.1875 C-8.48381104 254.1984668 -7.96762207 253.20943359 -7.43579102 252.19042969 C-2.49472338 242.44931281 0.93999605 232.45921351 4 222 C4.32355469 220.98164063 4.64710938 219.96328125 4.98046875 218.9140625 C11.65144537 196.90322595 10.89252714 173.67653052 9 151 C5.7 151 2.4 151 -1 151 C-1.10301866 120.40425025 -0.81897448 89.8126356 -0.53643799 59.21844482 C-0.47492725 52.51933843 -0.41528799 45.82021542 -0.35546875 39.12109375 C-0.23876122 26.0807127 -0.12011995 13.04035005 0 0 Z " fill="#E0BE09" transform="translate(408,72)"/>
<path d="M0 0 C17 0 17 0 25 1 C25.02332758 20.54029795 25.04097848 40.08059309 25.05181217 59.62090206 C25.05697543 68.69315493 25.06401869 77.76539916 25.07543945 86.83764648 C25.08538538 94.74208712 25.09185321 102.64652151 25.09408849 110.55096823 C25.09539576 114.73894719 25.09848259 118.92690827 25.10573006 123.11488152 C25.11248884 127.05215298 25.11461725 130.98939908 25.11310768 134.9266758 C25.11338407 136.37594617 25.11539004 137.82521735 25.11920547 139.27448273 C25.12414043 141.24470414 25.12239809 143.21493898 25.12025452 145.18516541 C25.12117631 146.29039519 25.1220981 147.39562498 25.12304783 148.53434658 C25 151 25 151 24 152 C16.08 152 8.16 152 0 152 C0 101.84 0 51.68 0 0 Z " fill="#E1BE06" transform="translate(67,72)"/>
<path d="M0 0 C0.94673584 0.00410889 1.89347168 0.00821777 2.86889648 0.01245117 C3.89563477 0.01438477 4.92237305 0.01631836 5.98022461 0.01831055 C7.05594727 0.03055664 8.13166992 0.04280273 9.23999023 0.05541992 C10.31958008 0.05606445 11.39916992 0.05670898 12.51147461 0.05737305 C20.53734426 0.10277394 20.53734426 0.10277394 21.67749023 1.24291992 C21.76524629 3.38850819 21.78444242 5.53696413 21.77514648 7.68432617 C21.77192383 8.98950195 21.76870117 10.29467773 21.76538086 11.6394043 C21.75702425 13.02807682 21.74855928 14.41674869 21.73999023 15.80541992 C21.73497689 17.19799648 21.7304137 18.59057474 21.72631836 19.9831543 C21.71448457 23.40311862 21.69799904 26.82299836 21.67749023 30.24291992 C22.39928467 30.23768311 23.1210791 30.23244629 23.86474609 30.22705078 C27.11481872 30.20634634 30.36487752 30.19328074 33.61499023 30.18041992 C34.75129883 30.17204102 35.88760742 30.16366211 37.05834961 30.1550293 C38.13793945 30.15180664 39.2175293 30.14858398 40.32983398 30.14526367 C41.83018188 30.13740845 41.83018188 30.13740845 43.36083984 30.12939453 C45.67749023 30.24291992 45.67749023 30.24291992 46.67749023 31.24291992 C46.76475246 33.02363238 46.78448065 34.80775132 46.77514648 36.59057617 C46.77192383 37.67016602 46.76870117 38.74975586 46.76538086 39.86206055 C46.7528125 41.56652344 46.7528125 41.56652344 46.73999023 43.30541992 C46.73547852 44.4455957 46.7309668 45.58577148 46.72631836 46.76049805 C46.71448771 49.58802344 46.69800433 52.41544632 46.67749023 55.24291992 C44.12025794 56.52153607 42.31011921 56.35628602 39.45092773 56.34057617 C38.52199707 56.33807861 37.59306641 56.33558105 36.63598633 56.33300781 C34.86215576 56.31935181 34.86215576 56.31935181 33.05249023 56.30541992 C27.42186523 56.27448242 27.42186523 56.27448242 21.67749023 56.24291992 C21.67749023 65.81291992 21.67749023 75.38291992 21.67749023 85.24291992 C17.57311523 85.26354492 13.46874023 85.28416992 9.23999023 85.30541992 C7.29588257 85.31907593 7.29588257 85.31907593 5.3125 85.33300781 C3.79354126 85.33675415 3.79354126 85.33675415 2.24389648 85.34057617 C0.68070679 85.3484314 0.68070679 85.3484314 -0.9140625 85.35644531 C-3.32250977 85.24291992 -3.32250977 85.24291992 -4.32250977 84.24291992 C-4.42820355 81.69778988 -4.46929149 79.17965666 -4.46777344 76.63378906 C-4.47113205 75.83706284 -4.47449066 75.04033661 -4.47795105 74.21946716 C-4.48748974 71.5723212 -4.48940561 68.92523828 -4.49047852 66.27807617 C-4.49368906 64.44583611 -4.49705297 62.61359632 -4.50056458 60.78135681 C-4.50656315 56.93528651 -4.50840373 53.08923871 -4.5078125 49.24316406 C-4.50771083 44.30531268 -4.52136444 39.36760495 -4.53858471 34.42978764 C-4.5496818 30.64407178 -4.55173242 26.8583909 -4.55120277 23.07266045 C-4.5523863 21.25172874 -4.55682881 19.43079623 -4.56453514 17.60988045 C-4.57428905 15.06696525 -4.57147536 12.52436515 -4.56542969 9.98144531 C-4.57104919 9.22344635 -4.5766687 8.46544739 -4.5824585 7.68447876 C-4.53871079 0.47472062 -4.53871079 0.47472062 0 0 Z " fill="#E2BF0C" transform="translate(444.322509765625,104.757080078125)"/>
<path d="M0 0 C0.98162109 -0.00128906 1.96324219 -0.00257812 2.97460938 -0.00390625 C4.51665039 0.00189453 4.51665039 0.00189453 6.08984375 0.0078125 C7.12173828 0.00394531 8.15363281 0.00007813 9.21679688 -0.00390625 C10.19712891 -0.00261719 11.17746094 -0.00132813 12.1875 0 C13.54307007 0.00169189 13.54307007 0.00169189 14.92602539 0.00341797 C17.02734375 0.1328125 17.02734375 0.1328125 18.02734375 1.1328125 C18.12245641 3.78019339 18.1529001 6.40140251 18.14086914 9.04907227 C18.14101517 9.87827179 18.14116119 10.70747131 18.14131165 11.5617981 C18.14061226 14.31596448 18.13281868 17.07006411 18.125 19.82421875 C18.12313591 21.72851016 18.12171197 23.63280205 18.12071228 25.53709412 C18.11688638 30.55949213 18.10705548 35.58186142 18.0960083 40.60424805 C18.08579573 45.7250937 18.08121499 50.84594398 18.07617188 55.96679688 C18.06543328 66.02214807 18.04835599 76.0774779 18.02734375 86.1328125 C14.23569301 86.1617462 10.44407048 86.17958851 6.65234375 86.1953125 C5.57210937 86.20369141 4.491875 86.21207031 3.37890625 86.22070312 C2.34765625 86.22392578 1.31640625 86.22714844 0.25390625 86.23046875 C-0.69919434 86.23570557 -1.65229492 86.24094238 -2.63427734 86.24633789 C-4.97265625 86.1328125 -4.97265625 86.1328125 -6.97265625 85.1328125 C-6.97265625 75.5628125 -6.97265625 65.9928125 -6.97265625 56.1328125 C-14.82608404 56.17240243 -14.82608404 56.17240243 -22.67944336 56.22290039 C-23.65147705 56.22539795 -24.62351074 56.22789551 -25.625 56.23046875 C-27.1253479 56.23832397 -27.1253479 56.23832397 -28.65600586 56.24633789 C-30.97265625 56.1328125 -30.97265625 56.1328125 -31.97265625 55.1328125 C-32.07212078 53.36422057 -32.10345842 51.59169799 -32.10546875 49.8203125 C-32.10675781 48.74523437 -32.10804687 47.67015625 -32.109375 46.5625 C-32.10357422 44.86480469 -32.10357422 44.86480469 -32.09765625 43.1328125 C-32.10152344 42.00101563 -32.10539062 40.86921875 -32.109375 39.703125 C-32.10808594 38.62804687 -32.10679688 37.55296875 -32.10546875 36.4453125 C-32.10434082 35.45144531 -32.10321289 34.45757812 -32.10205078 33.43359375 C-31.97265625 31.1328125 -31.97265625 31.1328125 -30.97265625 30.1328125 C-29.19194379 30.04555027 -27.40782485 30.02582209 -25.625 30.03515625 C-24.65296631 30.03765381 -23.68093262 30.04015137 -22.67944336 30.04272461 C-20.81364624 30.05638062 -20.81364624 30.05638062 -18.91015625 30.0703125 C-14.97078125 30.0909375 -11.03140625 30.1115625 -6.97265625 30.1328125 C-6.97265625 20.5628125 -6.97265625 10.9928125 -6.97265625 1.1328125 C-4.4826996 -0.11216583 -2.78270714 0.00346878 0 0 Z " fill="#E1BE08" transform="translate(40.97265625,104.8671875)"/>
<path d="M0 0 C1.65 0.33 3.3 0.66 5 1 C9.31573857 27.96956508 6.35268888 57.43781221 -3 83 C-3.42925781 84.20140625 -3.85851562 85.4028125 -4.30078125 86.640625 C-12.44291988 108.20009068 -24.41001671 128.05977682 -40.57714844 144.53759766 C-42.05777673 146.05938274 -43.50155014 147.61122041 -44.9453125 149.16796875 C-57.56767219 162.54839198 -72.71454273 172.60057552 -89 181 C-90.74410156 181.92039062 -90.74410156 181.92039062 -92.5234375 182.859375 C-108.22989642 190.69526841 -125.64980104 195.53224741 -143 198 C-143.64066406 198.0928125 -144.28132812 198.185625 -144.94140625 198.28125 C-191.83753391 204.34914082 -238.25051541 190.33904383 -275.40893555 161.72241211 C-279.96683853 158.13274319 -284.03465143 154.22271494 -288 150 C-288.825 149.175 -289.65 148.35 -290.5 147.5 C-291.325 146.675 -292.15 145.85 -293 145 C-293.55945313 144.48695313 -294.11890625 143.97390625 -294.6953125 143.4453125 C-316.828125 122.5669914 -330.07039053 92.09281044 -337 63 C-337.17789063 62.28360352 -337.35578125 61.56720703 -337.5390625 60.82910156 C-341.09261312 45.87457604 -340.34466075 30.27950946 -340.203125 15.01171875 C-340.19872406 14.29364548 -340.19432312 13.5755722 -340.18978882 12.83573914 C-340.13358485 8.79614646 -339.77312492 4.96517026 -339 1 C-337.35 1 -335.7 1 -334 1 C-334.0721875 1.75796875 -334.144375 2.5159375 -334.21875 3.296875 C-338.01476856 49.9035473 -328.4169403 95.14066746 -297.95703125 131.7421875 C-294.36416414 135.88725175 -290.73354923 139.98075309 -287 144 C-286.37222656 144.70511719 -285.74445313 145.41023437 -285.09765625 146.13671875 C-273.40911339 158.65850427 -258.20123085 168.29633197 -243 176 C-242.3714209 176.32049316 -241.7428418 176.64098633 -241.09521484 176.97119141 C-221.75546144 186.7083065 -200.16438006 193.13549981 -178.3984375 193.16796875 C-177.5995108 193.17129715 -176.80058411 193.17462555 -175.97744751 193.17805481 C-174.29502939 193.18308708 -172.61260142 193.18546429 -170.93017578 193.18530273 C-168.40249455 193.18747636 -165.87525981 193.20563633 -163.34765625 193.22460938 C-120.10732832 193.37666409 -81.72698317 175.61608386 -50 147 C-49.25105469 146.32453125 -48.50210937 145.6490625 -47.73046875 144.953125 C-35.70373043 133.48975732 -25.64533603 118.8367295 -18 104.1875 C-17.22571655 102.7039502 -17.22571655 102.7039502 -16.43579102 101.19042969 C-11.49472338 91.44931281 -8.06000395 81.45921351 -5 71 C-4.51466797 69.47246094 -4.51466797 69.47246094 -4.01953125 67.9140625 C2.65144537 45.90322595 1.89252714 22.67653052 0 0 Z " fill="#EE3939" transform="translate(417,223)"/>
<path d="M0 0 C5.15340445 4.52920718 5.15340445 4.52920718 7.4921875 7.01953125 C7.4921875 7.67953125 7.4921875 8.33953125 7.4921875 9.01953125 C3.95033519 9.01953125 1.58146991 8.9616831 -1.15625 6.59375 C-1.72601563 5.97113281 -2.29578125 5.34851563 -2.8828125 4.70703125 C-25.83189564 -20.01418186 -67.6751883 -36.82452314 -100.85253906 -38.18310547 C-105.8206329 -38.34442843 -110.7873786 -38.3958121 -115.7578125 -38.41796875 C-116.55906555 -38.42441406 -117.3603186 -38.43085937 -118.18585205 -38.4375 C-132.71818289 -38.50896499 -146.63804395 -36.71764277 -160.6328125 -32.66796875 C-161.37450684 -32.4563208 -162.11620117 -32.24467285 -162.88037109 -32.02661133 C-180.60842497 -26.81660277 -197.51084449 -18.77420491 -212.5078125 -7.98046875 C-213.52746094 -7.24699219 -214.54710937 -6.51351562 -215.59765625 -5.7578125 C-221.22050203 -1.62399272 -226.4512374 2.63321159 -231.375 7.5859375 C-234.18670563 9.47585685 -236.19260267 9.27926991 -239.5078125 9.01953125 C-230.3819979 -2.71365895 -217.99658145 -11.17996508 -205.5078125 -18.98046875 C-204.39921875 -19.68042969 -203.290625 -20.38039063 -202.1484375 -21.1015625 C-187.54396018 -29.89510342 -171.07956259 -36.05347768 -154.5078125 -39.98046875 C-153.82541504 -40.14417969 -153.14301758 -40.30789062 -152.43994141 -40.4765625 C-98.05856776 -52.71584864 -41.63015964 -35.69493608 0 0 Z " fill="#F03A3A" transform="translate(365.5078125,118.98046875)"/>
<path d="M0 0 C4.99682067 2.795619 7.54661758 5.84508103 9.7265625 11.11328125 C10.57488877 16.94552435 9.13389578 21.41034519 5.7265625 26.11328125 C0.51060402 30.55239485 -4.42343452 30.79129859 -11.171875 30.55859375 C-15.6255716 29.91914613 -18.38092231 28.56171527 -21.2734375 25.11328125 C-23.99340229 20.37527807 -24.95232487 16.54438019 -24.2734375 11.11328125 C-22.09349258 5.84508103 -19.54369567 2.795619 -14.546875 0 C-9.62709113 -1.91888477 -4.91978387 -1.91888477 0 0 Z " fill="#FD362E" transform="translate(239.2734375,137.88671875)"/>
<path d="M0 0 C7 0 7 0 9.07421875 1.9765625 C9.60660156 2.85054687 10.13898438 3.72453125 10.6875 4.625 C11.22761719 5.48351562 11.76773437 6.34203125 12.32421875 7.2265625 C12.87722656 8.14179688 13.43023437 9.05703125 14 10 C15.32628286 12.00468241 16.65790765 14.00586713 18 16 C18.63808594 14.92878906 19.27617187 13.85757813 19.93359375 12.75390625 C20.76815188 11.35672466 21.60279151 9.95959176 22.4375 8.5625 C22.85837891 7.85544922 23.27925781 7.14839844 23.71289062 6.41992188 C26.88671875 1.11328125 26.88671875 1.11328125 28 0 C30.31 0 32.62 0 35 0 C35 9.9 35 19.8 35 30 C32.36 30 29.72 30 27 30 C26.505 23.565 26.505 23.565 26 17 C25.113125 18.65 24.22625 20.3 23.3125 22 C21.80078125 24.8125 21.80078125 24.8125 20 27 C17.5 27.625 17.5 27.625 15 27 C12.46383478 23.91919192 10.90004649 20.53497021 9 17 C8.67 21.29 8.34 25.58 8 30 C5.36 30 2.72 30 0 30 C0 20.1 0 10.2 0 0 Z " fill="#FE332F" transform="translate(329,138)"/>
<path d="M0 0 C2.84625 -0.061875 5.6925 -0.12375 8.625 -0.1875 C9.51010254 -0.21481201 10.39520508 -0.24212402 11.30712891 -0.27026367 C16.29420547 -0.32245792 19.6870292 0.2178676 24 3 C26.1979747 5.71083547 26.92397877 7.48957172 27.4375 10.9375 C26.87672496 14.86292527 25.49711051 16.94797605 23 20 C19.7329506 22.13504544 17.10169884 22.21670712 13.25 22.125 C12.26515625 22.10695312 11.2803125 22.08890625 10.265625 22.0703125 C9.51796875 22.04710937 8.7703125 22.02390625 8 22 C8 24.64 8 27.28 8 30 C5.36 30 2.72 30 0 30 C0 20.1 0 10.2 0 0 Z " fill="#FE342F" transform="translate(139,138)"/>
<path d="M0 0 C0.99 0.495 0.99 0.495 2 1 C1.319375 1.721875 0.63875 2.44375 -0.0625 3.1875 C-3.56323823 7.32293297 -5.7682992 12.14434132 -8.15625 16.9765625 C-10.76649033 21.25691423 -14.27530303 24.24844884 -19 26 C-24.99250441 26.49242028 -31.12036845 26.30658479 -37 25 C-36.97873538 28.40614946 -36.97873538 28.40614946 -36 32 C-33.42011272 33.91706133 -33.42011272 33.91706133 -30 35 C-29.28199219 35.27714844 -28.56398438 35.55429687 -27.82421875 35.83984375 C-25.89213096 36.58453833 -23.94694827 37.29507045 -22 38 C-25 39 -25 39 -26.6875 38.5625 C-30.14040089 37.72260519 -33.45112343 37.94085206 -37 38 C-37 39.32 -37 40.64 -37 42 C-34.03 42.66 -31.06 43.32 -28 44 C-28.495 44.99 -28.495 44.99 -29 46 C-31.32206525 46.70491267 -33.65593068 47.37212429 -36 48 C-37.27003323 49.05310277 -37.27003323 49.05310277 -37.1875 51.4375 C-37.26839983 54.16734675 -37.26839983 54.16734675 -35 56 C-32.42938689 56.64767793 -32.42938689 56.64767793 -30 57 C-30.495 57.99 -30.495 57.99 -31 59 C-34.0625 59.625 -34.0625 59.625 -37 60 C-37.33 61.98 -37.66 63.96 -38 66 C-38.66 66 -39.32 66 -40 66 C-40.495 63.03 -40.495 63.03 -41 60 C-43.31 59.34 -45.62 58.68 -48 58 C-48 57.67 -48 57.34 -48 57 C-46.02 56.34 -44.04 55.68 -42 55 C-40.99782936 51.41672247 -40.99782936 51.41672247 -42 48 C-44.3140622 47.26924352 -46.64828869 46.59861742 -49 46 C-49 45.34 -49 44.68 -49 44 C-46.36 43.34 -43.72 42.68 -41 42 C-41 40.68 -41 39.36 -41 38 C-48.05651252 37.85024761 -48.05651252 37.85024761 -55 39 C-52.59231297 36.20836288 -50.23853384 35.10282443 -46.8125 33.8125 C-45.91144531 33.46832031 -45.01039063 33.12414062 -44.08203125 32.76953125 C-43.39496094 32.51558594 -42.70789063 32.26164062 -42 32 C-41.67 29.69 -41.34 27.38 -41 25 C-42.3921875 25.2475 -42.3921875 25.2475 -43.8125 25.5 C-51.58664522 26.53865098 -58.65054269 27.4254721 -65.29296875 22.609375 C-68.27180447 19.80095322 -70.09154385 16.58713164 -72 13 C-72.47824219 12.19304687 -72.95648438 11.38609375 -73.44921875 10.5546875 C-76.14778746 5.95603068 -76.14778746 5.95603068 -77 4 C-76.67 3.34 -76.34 2.68 -76 2 C-72.46822534 6.25049467 -69.68290836 10.72732458 -66.87890625 15.4765625 C-64.48320811 18.69406977 -61.90612463 20.27698721 -58.1875 21.6875 C-53.57308891 22.34670158 -49.59841667 22.53280556 -45.1875 21.0625 C-41.91469413 17.97671161 -41.10276089 14.27656051 -40 10 C-39.34 10 -38.68 10 -38 10 C-37.84144531 10.61488281 -37.68289062 11.22976563 -37.51953125 11.86328125 C-36.06811488 16.98144474 -36.06811488 16.98144474 -32.8125 21.0625 C-27.13649439 22.95450187 -21.45259959 22.56833166 -15.94921875 20.30859375 C-11.85024908 17.55678045 -9.52883058 13.14160519 -7 9 C-2.81312127 2.53180915 -2.81312127 2.53180915 0 0 Z " fill="#171717" transform="translate(289,263)"/>
<path d="M0 0 C2.53905844 1.77734091 3.50147198 2.85426876 4.5 5.75 C2.875 7.375 2.875 7.375 0.5 8.75 C-1.51301483 8.12372872 -3.51200182 7.45164642 -5.5 6.75 C-8.91909466 6.92385227 -11.46083112 7.14661162 -14.4375 8.875 C-16.15036957 11.89771101 -15.85727863 14.35585305 -15.5 17.75 C-14.73608998 20.26869332 -14.73608998 20.26869332 -12.5 21.75 C-9.46596129 22.38478115 -6.61324732 22.56952189 -3.5 22.75 C-3.5 19.78 -3.5 16.81 -3.5 13.75 C-0.86 13.75 1.78 13.75 4.5 13.75 C4.5 18.04 4.5 22.33 4.5 26.75 C-2.07565713 30.48753156 -8.07531708 30.95788357 -15.5 29.75 C-19.91531612 27.31149699 -22.89547131 24.56358606 -24.5 19.75 C-24.99923837 14.53664194 -25.12614705 10.12752351 -22.9375 5.3125 C-16.28704835 -1.67900045 -9.08678024 -3.24527866 0 0 Z " fill="#FD362E" transform="translate(289.5,138.25)"/>
<path d="M0 0 C1.94420943 1.2078186 3.7799577 2.46165075 5.58203125 3.87109375 C4.26203125 5.52109375 2.94203125 7.17109375 1.58203125 8.87109375 C1.06640625 8.72671875 0.55078125 8.58234375 0.01953125 8.43359375 C-0.78484375 8.24796875 -1.58921875 8.06234375 -2.41796875 7.87109375 C-3.55234375 7.60296875 -4.68671875 7.33484375 -5.85546875 7.05859375 C-9.43739995 6.57180345 -9.43739995 6.57180345 -12.35546875 8.37109375 C-14.71657054 10.79089654 -14.71657054 10.79089654 -14.91796875 14.37109375 C-14.38898801 18.83855193 -14.38898801 18.83855193 -11.41796875 21.87109375 C-6.7072708 22.56410146 -3.42734783 22.54401314 0.58203125 19.87109375 C2.23203125 21.19109375 3.88203125 22.51109375 5.58203125 23.87109375 C4.58203125 26.87109375 4.58203125 26.87109375 2.33203125 28.55859375 C-3.29532151 30.52816722 -8.53347386 30.89479542 -14.41796875 29.87109375 C-18.7763014 27.40224972 -21.82236335 24.65790996 -23.41796875 19.87109375 C-23.91720712 14.65773569 -24.0441158 10.24861726 -21.85546875 5.43359375 C-15.87736657 -0.85107777 -8.30861755 -3.87914454 0 0 Z " fill="#FD362F" transform="translate(207.41796875,138.12890625)"/>
<path d="M0 0 C3.18823383 -0.63764677 5.84399377 -0.87239197 9 0 C11.63608624 3.03549324 13.33977601 6.35401791 15 10 C17.21116694 7.94089039 18.7388771 5.95998323 20.1875 3.3125 C20.785625 2.219375 21.38375 1.12625 22 0 C24.64 0 27.28 0 30 0 C28.65845397 4.69892301 26.68893498 8.16770843 23.9375 12.1875 C20.11807023 18.01044039 18.77686284 23.04090972 19 30 C16.36 30 13.72 30 11 30 C11.04382813 29.319375 11.08765625 28.63875 11.1328125 27.9375 C11.10783668 18.54659058 7.2659485 12.76773599 2.15234375 5.2734375 C0 2 0 2 0 0 Z " fill="#FE332F" transform="translate(296,138)"/>
<path d="M0 0 C0.66 0 1.32 0 2 0 C5 5.75 5 5.75 5 8 C6.423125 7.9690625 6.423125 7.9690625 7.875 7.9375 C11 8 11 8 13 9 C11.84826645 11.46800047 10.95216435 13.04783565 9 15 C8.75746187 17.21072977 8.75746187 17.21072977 8.875 19.625 C8.90207031 20.85089844 8.90207031 20.85089844 8.9296875 22.1015625 C8.95289063 22.72804688 8.97609375 23.35453125 9 24 C7.700625 23.4740625 7.700625 23.4740625 6.375 22.9375 C1.51599547 21.58777652 -2.24267364 22.80556398 -7 24 C-6.95359375 23.39671875 -6.9071875 22.7934375 -6.859375 22.171875 C-6.49704655 16.95278249 -6.49704655 16.95278249 -9 12.5625 C-9.66 12.046875 -10.32 11.53125 -11 11 C-11 10.34 -11 9.68 -11 9 C-8.29120665 7.64560332 -5.99066732 7.93498549 -3 8 C-2.690625 7.05125 -2.38125 6.1025 -2.0625 5.125 C-1 2 -1 2 0 0 Z " fill="#F72F2F" transform="translate(249,93)"/>
<path d="M0 0 C2.97 0 5.94 0 9 0 C9 9.9 9 19.8 9 30 C6.03 30 3.06 30 0 30 C0 20.1 0 10.2 0 0 Z " fill="#FD382E" transform="translate(170,138)"/>
<path d="M0 0 C4.10703441 0.85563217 5.55401113 2.24378009 8 5.625 C8.66154724 9.74129392 8.39475662 11.85193494 6.5 15.5625 C3.47072721 18.06165005 1.75272434 18.3709903 -2.09375 18.10546875 C-4 17.625 -4 17.625 -6.5 15.5625 C-8.39475662 11.85193494 -8.66154724 9.74129392 -8 5.625 C-5.55401113 2.24378009 -4.10703441 0.85563217 0 0 Z " fill="#E1B902" transform="translate(232,143.375)"/>
<path d="M0 0 C8.25 0 16.5 0 25 0 C22.7448078 2.2551922 20.9952413 2.97723468 18 4 C17.01 4 16.02 4 15 4 C16.2375 5.175625 16.2375 5.175625 17.5 6.375 C20 9 20 9 20 11 C11.42 11 2.84 11 -6 11 C-2.12788877 8.09591658 0.40317854 7.14920536 5 6 C3.35 4.02 1.7 2.04 0 0 Z " fill="#FC3D2C" transform="translate(373,149)"/>
<path d="M0 0 C2.0234375 0.65234375 2.0234375 0.65234375 4.0234375 3.65234375 C4.4609375 7.08984375 4.4609375 7.08984375 4.0234375 10.65234375 C1.8984375 13.15234375 1.8984375 13.15234375 -0.9765625 14.65234375 C-4.60732077 14.65234375 -6.39704664 14.06410502 -9.3515625 11.96484375 C-11.49074001 8.9206296 -11.58473296 7.30136653 -10.9765625 3.65234375 C-8.15424627 -1.1333229 -4.97703407 -0.60352739 0 0 Z " fill="#EB2D2D" transform="translate(230.9765625,384.34765625)"/>
<path d="M0 0 C4.45144991 1.5483304 4.45144991 1.5483304 5.875 4 C6.26774738 7.09288558 6.51077985 9.04689172 5.875 12 C3.4566209 14.76386182 1.90842666 15.79835577 -1.6875 16.5 C-5.0499123 15.8102744 -6.1736167 14.81866476 -8.125 12 C-8.85572741 7.53444362 -8.63261596 5.7166343 -6 2 C-3.125 0 -3.125 0 0 0 Z " fill="#ED2D2D" transform="translate(378.125,293)"/>
<path d="M0 0 C8.25 0 16.5 0 25 0 C23.68 1.65 22.36 3.3 21 5 C23.64 6.32 26.28 7.64 29 9 C29 9.33 29 9.66 29 10 C21.41 10 13.82 10 6 10 C7.32 8.02 8.64 6.04 10 4 C9.278125 3.87625 8.55625 3.7525 7.8125 3.625 C5.04278106 3.0095069 2.6029646 2.11555626 0 1 C0 0.67 0 0.34 0 0 Z " fill="#FD352F" transform="translate(105,149)"/>
<path d="M0 0 C2.3125 0.9375 2.3125 0.9375 4.3125 2.9375 C4.3125 4.2575 4.3125 5.5775 4.3125 6.9375 C5.9625 6.9375 7.6125 6.9375 9.3125 6.9375 C8.9825 7.9275 8.6525 8.9175 8.3125 9.9375 C6.3325 10.2675 4.3525 10.5975 2.3125 10.9375 C2.6425 12.5875 2.9725 14.2375 3.3125 15.9375 C-0.49095877 15.9375 -1.46451015 14.79963669 -4.375 12.4375 C-5.18324219 11.7878125 -5.99148438 11.138125 -6.82421875 10.46875 C-7.74654297 9.71078125 -7.74654297 9.71078125 -8.6875 8.9375 C-7.75074557 4.18245308 -5.31160277 -0.12352565 0 0 Z " fill="#EE2D2D" transform="translate(352.6875,337.0625)"/>
<path d="M0 0 C1.60875 -0.04125 3.2175 -0.0825 4.875 -0.125 C5.77992188 -0.14820313 6.68484375 -0.17140625 7.6171875 -0.1953125 C10 0 10 0 12 2 C12.20230517 4.5625321 12.09579668 6.63810143 11.4375 9.125 C10.77876382 11.20883241 10.77876382 11.20883241 12 14 C10.68 14 9.36 14 8 14 C7.67 12.68 7.34 11.36 7 10 C6.01 10 5.02 10 4 10 C4 11.32 4 12.64 4 14 C2.68 14 1.36 14 0 14 C0 9.38 0 4.76 0 0 Z " fill="#F02E2E" transform="translate(248,386)"/>
<path d="M0 0 C0.66 0.33 1.32 0.66 2 1 C1.39009109 4.55780196 0.4216319 7.6828589 -1 11 C0.98 10.34 2.96 9.68 5 9 C5.33 10.32 5.66 11.64 6 13 C1.71 14.65 -2.58 16.3 -7 18 C-8 14 -8 14 -7.22265625 12.078125 C-5.61132812 9.5390625 -5.61132812 9.5390625 -4 7 C-6.31 7.66 -8.62 8.32 -11 9 C-11.33 7.68 -11.66 6.36 -12 5 C-10.04578965 4.13644222 -8.08648653 3.28440066 -6.125 2.4375 C-5.03445312 1.96183594 -3.94390625 1.48617188 -2.8203125 0.99609375 C-1.88960937 0.66738281 -0.95890625 0.33867187 0 0 Z " fill="#E82C2C" transform="translate(128,303)"/>
<path d="M0 0 C5.19209404 -0.21192221 9.126739 0.4087311 14 2 C13.875 3.8125 13.875 3.8125 13 6 C7.96428571 9 7.96428571 9 5 9 C5 9.66 5 10.32 5 11 C7.64 11 10.28 11 13 11 C13 12.32 13 13.64 13 15 C7.9697924 14.47462276 2.98114761 13.89405214 -2 13 C-1.9375 11.25 -1.9375 11.25 -1 9 C1.24164322 7.40498463 3.53566643 6.25456982 6 5 C3.03 4.505 3.03 4.505 0 4 C0 2.68 0 1.36 0 0 Z " fill="#E72C2C" transform="translate(377,268)"/>
<path d="M0 0 C0.99 0 1.98 0 3 0 C4.3271261 3.9813783 4.06915913 7.85045227 4 12 C-0.95 12 -5.9 12 -11 12 C-11 8.37 -11 4.74 -11 1 C-10.01 1 -9.02 1 -8 1 C-8 3.31 -8 5.62 -8 8 C-7.01 8 -6.02 8 -5 8 C-5 5.69 -5 3.38 -5 1 C-4.01 1 -3.02 1 -2 1 C-2 3.31 -2 5.62 -2 8 C-1.34 8 -0.68 8 0 8 C0 5.36 0 2.72 0 0 Z " fill="#DB2929" transform="translate(388,244)"/>
<path d="M0 0 C0.763125 0.639375 1.52625 1.27875 2.3125 1.9375 C4.88246713 4.14232781 4.88246713 4.14232781 8 5 C7.67 5.53625 7.34 6.0725 7 6.625 C5.77300796 9.5391061 5.85766714 11.86867708 6 15 C4.39125 14.7215625 4.39125 14.7215625 2.75 14.4375 C-0.40391546 14.0695432 -2.09818492 13.95534657 -5 15 C-4.9071875 13.63875 -4.9071875 13.63875 -4.8125 12.25 C-5.01672076 8.71017358 -5.64551835 7.55068845 -8 5 C-7.05125 4.731875 -6.1025 4.46375 -5.125 4.1875 C-1.74732727 3.25013412 -1.74732727 3.25013412 0 0 Z " fill="#F42E2E" transform="translate(219,107)"/>
<path d="M0 0 C0.763125 0.639375 1.52625 1.27875 2.3125 1.9375 C4.88246713 4.14232781 4.88246713 4.14232781 8 5 C7.67 5.53625 7.34 6.0725 7 6.625 C5.77300796 9.5391061 5.85766714 11.86867708 6 15 C4.39125 14.7215625 4.39125 14.7215625 2.75 14.4375 C-0.40391546 14.0695432 -2.09818492 13.95534657 -5 15 C-4.95875 14.0925 -4.9175 13.185 -4.875 12.25 C-4.99531556 9.1217954 -5.3914708 7.61385994 -7 5 C-6.21625 4.731875 -5.4325 4.46375 -4.625 4.1875 C-1.71885077 3.15185568 -1.71885077 3.15185568 0 0 Z " fill="#F62F2F" transform="translate(280,107)"/>
<path d="M0 0 C0 0.99 0 1.98 0 3 C-1.2065625 3.4021875 -1.2065625 3.4021875 -2.4375 3.8125 C-3.283125 4.204375 -4.12875 4.59625 -5 5 C-5.33 5.99 -5.66 6.98 -6 8 C-5.401875 7.67 -4.80375 7.34 -4.1875 7 C-2 6 -2 6 1 6 C1 6.99 1 7.98 1 9 C-0.65 9.33 -2.3 9.66 -4 10 C-4 10.99 -4 11.98 -4 13 C-3.236875 12.67 -2.47375 12.34 -1.6875 12 C1 11 1 11 4 11 C4 11.99 4 12.98 4 14 C2.73160474 14.50615298 1.46016898 15.00469099 0.1875 15.5 C-0.52019531 15.7784375 -1.22789062 16.056875 -1.95703125 16.34375 C-4 17 -4 17 -7 17 C-7.67260351 15.23141309 -8.33788395 13.46003984 -9 11.6875 C-9.37125 10.70136719 -9.7425 9.71523438 -10.125 8.69921875 C-11 6 -11 6 -11 3 C-9.54293274 2.49632243 -8.08429904 1.99717444 -6.625 1.5 C-5.81289063 1.2215625 -5.00078125 0.943125 -4.1640625 0.65625 C-2 0 -2 0 0 0 Z " fill="#E62C2C" transform="translate(296,377)"/>
<path d="M0 0 C0.99 0.33 1.98 0.66 3 1 C0.525 4.465 0.525 4.465 -2 8 C-1.236875 7.484375 -0.47375 6.96875 0.3125 6.4375 C1.199375 5.963125 2.08625 5.48875 3 5 C3.99 5.33 4.98 5.66 6 6 C4.625 8 4.625 8 3 10 C2.34 10 1.68 10 1 10 C1.33 10.66 1.66 11.32 2 12 C2.5775 11.690625 3.155 11.38125 3.75 11.0625 C5.84294184 10.07416636 7.74535275 9.4831387 10 9 C8.50871999 12.79598549 6.34266559 14.71720399 3 17 C2.01 17 1.02 17 0 17 C-1.82421875 15.03125 -1.82421875 15.03125 -3.6875 12.5 C-4.62142578 11.24703125 -4.62142578 11.24703125 -5.57421875 9.96875 C-6.27998047 8.99421875 -6.27998047 8.99421875 -7 8 C-5.29494862 4.26774469 -3.46750007 2.28347566 0 0 Z " fill="#EA2C2C" transform="translate(334,353)"/>
<path d="M0 0 C3.20200091 1.36296984 4.3145849 3.8471769 5.91796875 6.81640625 C5.58796875 7.80640625 5.25796875 8.79640625 4.91796875 9.81640625 C2.93796875 8.16640625 0.95796875 6.51640625 -1.08203125 4.81640625 C-0.42203125 7.12640625 0.23796875 9.43640625 0.91796875 11.81640625 C-0.07203125 11.81640625 -1.06203125 11.81640625 -2.08203125 11.81640625 C-2.74203125 10.82640625 -3.40203125 9.83640625 -4.08203125 8.81640625 C-5.07203125 8.48640625 -6.06203125 8.15640625 -7.08203125 7.81640625 C-6.42203125 8.76515625 -5.76203125 9.71390625 -5.08203125 10.69140625 C-3.08203125 13.81640625 -3.08203125 13.81640625 -3.08203125 15.81640625 C-4.83203125 15.69140625 -4.83203125 15.69140625 -7.08203125 14.81640625 C-9.33203125 11.75390625 -9.33203125 11.75390625 -11.08203125 8.81640625 C-9.77021584 4.88096002 -7.12244398 3.06702462 -3.93359375 0.671875 C-2.08203125 -0.18359375 -2.08203125 -0.18359375 0 0 Z " fill="#EA2C2C" transform="translate(140.08203125,326.18359375)"/>
<path d="M0 0 C3.61116998 0.19519838 4.78426187 0.77260035 7.3125 3.4375 C9 6 9 6 9 8 C7.68 8 6.36 8 5 8 C4.67 7.01 4.34 6.02 4 5 C3.34 4.67 2.68 4.34 2 4 C2.350625 4.721875 2.70125 5.44375 3.0625 6.1875 C4.10409017 9.3122705 3.89096572 10.88161996 3 14 C0.8125 14.8125 0.8125 14.8125 -2 15 C-4.8125 12.8125 -4.8125 12.8125 -7 10 C-7 8.68 -7 7.36 -7 6 C-6.01 6 -5.02 6 -4 6 C-3.566875 6.9590625 -3.566875 6.9590625 -3.125 7.9375 C-2.17176549 10.15206079 -2.17176549 10.15206079 0 11 C-0.5259375 9.9171875 -0.5259375 9.9171875 -1.0625 8.8125 C-2.10994191 5.67017428 -1.9554164 4.12681731 -1 1 C-0.67 0.67 -0.34 0.34 0 0 Z " fill="#E52B2B" transform="translate(152,345)"/>
<path d="M0 0 C3.7792847 0.40857132 6.24667691 1.34865184 9 4 C9 4.99 9 5.98 9 7 C6.03824877 6.38722388 4.61941217 5.74627478 2 4 C2.515625 4.721875 3.03125 5.44375 3.5625 6.1875 C5.21442982 9.4195366 5.06351675 10.61608307 4 14 C1.8125 14.75 1.8125 14.75 -1 15 C-3.8125 13.3125 -3.8125 13.3125 -6 11 C-6 9.68 -6 8.36 -6 7 C-2.66462511 8.11179163 -1.36292656 9.47411298 1 12 C0.484375 11.113125 -0.03125 10.22625 -0.5625 9.3125 C-2.08979002 5.79309257 -2.21675714 4.548875 -1 1 C-0.67 0.67 -0.34 0.34 0 0 Z " fill="#E92C2C" transform="translate(169,360)"/>
<path d="M0 0 C2.85793316 2.85793316 2.40799941 5.14665584 2.625 9.125 C2.69976562 10.40632813 2.77453125 11.68765625 2.8515625 13.0078125 C2.92503906 14.48894531 2.92503906 14.48894531 3 16 C1.359375 16.77734375 1.359375 16.77734375 -1 17 C-3.796875 15.12890625 -3.796875 15.12890625 -6.75 12.5625 C-7.73484375 11.71816406 -8.7196875 10.87382812 -9.734375 10.00390625 C-10.48203125 9.34261719 -11.2296875 8.68132812 -12 8 C-11.67 7.34 -11.34 6.68 -11 6 C-6.59885603 6.50298788 -4.28804981 8.08772731 -1 11 C-1.33 7.7 -1.66 4.4 -2 1 C-1.34 0.67 -0.68 0.34 0 0 Z " fill="#E42B2B" transform="translate(317,366)"/>
<path d="M0 0 C0.33 0 0.66 0 1 0 C1.55182903 7.5953134 -0.03643835 12.35900005 -3.5 19.0625 C-3.92925781 19.92810547 -4.35851562 20.79371094 -4.80078125 21.68554688 C-5.85159351 23.79884708 -6.91788634 25.90260535 -8 28 C-8.33 28 -8.66 28 -9 28 C-10.91431746 17.05766686 -5.34925674 9.05340477 0 0 Z " fill="#F03633" transform="translate(101,159)"/>
<path d="M0 0 C5.65572864 5.09015577 9.44077334 12.50906751 10.3828125 20.07421875 C10.37613162 22.4158666 10.2831924 24.67677343 10 27 C7.07468851 24.07468851 5.6567093 20.57692604 3.875 16.875 C3.50246094 16.14023438 3.12992187 15.40546875 2.74609375 14.6484375 C0.26440029 9.48506064 -0.40217645 5.72128428 0 0 Z " fill="#F14234" transform="translate(398,160)"/>
<path d="M0 0 C3.9492568 0.55105909 7.34920174 1.38935371 11 3 C10.67 3.99 10.34 4.98 10 6 C7.69 5.34 5.38 4.68 3 4 C3.66868314 7.11332248 3.66868314 7.11332248 6.0625 8.1875 C6.701875 8.455625 7.34125 8.72375 8 9 C8 9.66 8 10.32 8 11 C5.69 11 3.38 11 1 11 C0.67 11.99 0.34 12.98 0 14 C-1.32 14 -2.64 14 -4 14 C-3.52188823 12.22888156 -3.0424722 10.45811517 -2.5625 8.6875 C-2.29566406 7.70136719 -2.02882812 6.71523438 -1.75390625 5.69921875 C-1.21920575 3.78482474 -0.62855462 1.88566385 0 0 Z " fill="#E42B2B" transform="translate(201,377)"/>
<path d="M0 0 C4.62 0 9.24 0 14 0 C14 3.63 14 7.26 14 11 C13.01 11 12.02 11 11 11 C11 8.69 11 6.38 11 4 C10.01 4 9.02 4 8 4 C8 5.98 8 7.96 8 10 C7.01 10 6.02 10 5 10 C5 7.69 5 5.38 5 3 C3.35 3 1.7 3 0 3 C0 2.01 0 1.02 0 0 Z " fill="#F02E2E" transform="translate(107,245)"/>
<path d="M0 0 C3.46123134 1.15374378 4.01149848 2.03672292 6.0625 4.9375 C7.63658929 7.14442927 9.07911204 9.07911204 11 11 C10.67 11.66 10.34 12.32 10 13 C4.72 12.34 -0.56 11.68 -6 11 C-5.67 10.01 -5.34 9.02 -5 8 C-1.535 7.505 -1.535 7.505 2 7 C1.484375 6.401875 0.96875 5.80375 0.4375 5.1875 C-0.036875 4.465625 -0.51125 3.74375 -1 3 C-0.67 2.01 -0.34 1.02 0 0 Z " fill="#ED2D2D" transform="translate(363,316)"/>
<path d="M0 0 C0.99 0 1.98 0 3 0 C3.99 3.96 4.98 7.92 6 12 C5.01 12 4.02 12 3 12 C2.67 11.34 2.34 10.68 2 10 C-1.63 10.33 -5.26 10.66 -9 11 C-9.33 9.68 -9.66 8.36 -10 7 C-4.555 6.01 -4.555 6.01 1 5 C0.67 3.35 0.34 1.7 0 0 Z " fill="#E62C2C" transform="translate(120,281)"/>
<path d="M0 0 C6.0546875 -0.1953125 6.0546875 -0.1953125 8 0 C8.66 0.66 9.32 1.32 10 2 C9.44444444 6.55555556 9.44444444 6.55555556 8 8 C5.32941149 8.14115161 2.67567762 8.04247107 0 8 C0 5.36 0 2.72 0 0 Z " fill="#E1BB01" transform="translate(147,145)"/>
<path d="M0 0 C-0.51599686 5.5469662 -1.99655594 9.67843583 -4.5 14.625 C-6.53047789 18.68595577 -8.37248932 22.45054758 -9 27 C-9.33 27 -9.66 27 -10 27 C-11.1805666 18.56738139 -6.93480979 12.14689941 -3 5 C-3.66 5 -4.32 5 -5 5 C-5 4.34 -5 3.68 -5 3 C-1.42307692 0 -1.42307692 0 0 0 Z " fill="#303030" transform="translate(182,220)"/>
<path d="M0 0 C2.625 0.375 2.625 0.375 5 1 C5.625 3.375 5.625 3.375 6 6 C4 8 4 8 1.4375 8.1875 C-1 8 -1 8 -2 7 C-2.1875 4.5625 -2.1875 4.5625 -2 2 C-1.34 1.34 -0.68 0.68 0 0 Z " fill="#0E0202" transform="translate(226,387)"/>
<path d="M0 0 C4.70588235 0.70588235 4.70588235 0.70588235 6 2 C6.125 4.5 6.125 4.5 6 7 C5 8 5 8 2.5625 8.1875 C0 8 0 8 -2 6 C-1.44444444 1.44444444 -1.44444444 1.44444444 0 0 Z " fill="#0D0202" transform="translate(375,297)"/>
<path d="M0 0 C1.09570312 0.00902344 2.19140625 0.01804687 3.3203125 0.02734375 C4.16335937 0.03894531 5.00640625 0.05054688 5.875 0.0625 C5.875 1.3825 5.875 2.7025 5.875 4.0625 C1.255 4.0625 -3.365 4.0625 -8.125 4.0625 C-8.125 3.0725 -8.125 2.0825 -8.125 1.0625 C-5.36047967 -0.31976016 -3.0788637 -0.03275387 0 0 Z " fill="#E42B2B" transform="translate(115.125,266.9375)"/>
<path d="M0 0 C0.66 0 1.32 0 2 0 C3.4606285 2.64738916 4 3.89448334 4 7 C4.955147 8.9188221 5.96253876 10.81190457 7 12.6875 C9.69106243 17.88643047 10.66744882 21.21544353 10 27 C9.67 27 9.34 27 9 27 C8.77957031 26.12601563 8.77957031 26.12601563 8.5546875 25.234375 C6.83203846 18.93779574 4.34605198 13.48222124 1.20703125 7.76171875 C-0.04166341 4.90467303 -0.25218464 3.07665261 0 0 Z " fill="#2A2A2A" transform="translate(318,220)"/>
<path d="M0 0 C2 1 2 1 3 3 C2.278125 3.37125 1.55625 3.7425 0.8125 4.125 C-4.45703898 7.63802598 -7.42261628 12.30262545 -10 18 C-10.90679764 15.51616299 -11.12304943 14.3422121 -10.21484375 11.81640625 C-7.36447145 6.78685023 -4.69985283 3.38826599 0 0 Z " fill="#333333" transform="translate(275,324)"/>
<path d="M0 0 C7.83493059 -0.75015293 13.38915475 0.69385309 20 5 C21.78515625 6.66796875 21.78515625 6.66796875 23 8 C22.67 8.66 22.34 9.32 22 10 C21.29037109 9.51080078 21.29037109 9.51080078 20.56640625 9.01171875 C14.15061369 4.77204296 7.60990011 2.22740324 0 1 C0 0.67 0 0.34 0 0 Z " fill="#161616" transform="translate(224,252)"/>
<path d="M0 0 C0.556875 0.268125 1.11375 0.53625 1.6875 0.8125 C0.6975 1.1425 -0.2925 1.4725 -1.3125 1.8125 C-0.3225 2.8025 0.6675 3.7925 1.6875 4.8125 C1.0275 6.1325 0.3675 7.4525 -0.3125 8.8125 C-0.93125 8.4825 -1.55 8.1525 -2.1875 7.8125 C-4.22268344 6.67056765 -4.22268344 6.67056765 -6.3125 6.8125 C-6.9725 7.4725 -7.6325 8.1325 -8.3125 8.8125 C-7.82204356 4.398392 -4.79279276 -0.38860482 0 0 Z " fill="#D72929" transform="translate(352.3125,337.1875)"/>
<path d="M0 0 C0.79664063 0.10699219 1.59328125 0.21398437 2.4140625 0.32421875 C6.49509682 0.8253984 10.56514566 1.24397427 14.6640625 1.57421875 C15.68757813 1.65800781 16.71109375 1.74179687 17.765625 1.828125 C18.89097656 1.91900391 18.89097656 1.91900391 20.0390625 2.01171875 C14.31567029 5.82731356 6.85326761 4.3083551 0.3515625 3.01171875 C-1.0884106 2.68923644 -2.52700814 2.36009204 -3.9609375 2.01171875 C-1.9609375 0.01171875 -1.9609375 0.01171875 0 0 Z " fill="#262626" transform="translate(302.9609375,255.98828125)"/>
<path d="M0 0 C0.89203125 0.00902344 1.7840625 0.01804688 2.703125 0.02734375 C3.37859375 0.03894531 4.0540625 0.05054688 4.75 0.0625 C4.75 0.3925 4.75 0.7225 4.75 1.0625 C3.15671875 1.40861328 3.15671875 1.40861328 1.53125 1.76171875 C-6.26040394 3.53288394 -12.74756351 5.18567263 -19.25 10.0625 C-17.864012 6.71183828 -16.4743823 5.22878149 -13.375 3.375 C-12.69695312 2.95863281 -12.01890625 2.54226562 -11.3203125 2.11328125 C-7.51365622 0.18122363 -4.23821399 -0.05576597 0 0 Z " fill="#1A1A1A" transform="translate(272.25,251.9375)"/>
<path d="M0 0 C0 0.33 0 0.66 0 1 C-6.97363595 2.85963625 -13.77368647 3.766598 -21 3 C-21.66 2.34 -22.32 1.68 -23 1 C-15.307359 0.15199233 -7.73708326 -0.12152487 0 0 Z " fill="#1C1C1C" transform="translate(200,257)"/>
<path d="M0 0 C1 3 1 3 0.14453125 5.33984375 C-4.28049364 13.96929111 -4.28049364 13.96929111 -8 17 C-8.99 16.67 -9.98 16.34 -11 16 C-10.29875 15.401875 -9.5975 14.80375 -8.875 14.1875 C-4.84033159 10.21063486 -2.54512594 4.99404437 0 0 Z " fill="#3A3A3A" transform="translate(263,325)"/>
<path d="M0 0 C0.44730469 0.39832031 0.89460937 0.79664063 1.35546875 1.20703125 C4.74779939 4.17984125 8.01840224 6.8282194 12 9 C11.01 9.495 11.01 9.495 10 10 C9.01 9.67 8.02 9.34 7 9 C6.67 9.66 6.34 10.32 6 11 C4.9944239 9.54550599 3.99569565 8.08627557 3 6.625 C2.443125 5.81289063 1.88625 5.00078125 1.3125 4.1640625 C0 2 0 2 0 0 Z " fill="#303030" transform="translate(217,285)"/>
<path d="M0 0 C0.33 0.66 0.66 1.32 1 2 C-1.97 6.455 -1.97 6.455 -5 11 C-5.33 10.34 -5.66 9.68 -6 9 C-7.65 9.33 -9.3 9.66 -11 10 C-8.70395251 7.64600809 -6.29439874 5.46890382 -3.8125 3.3125 C-2.73935547 2.37857422 -2.73935547 2.37857422 -1.64453125 1.42578125 C-1.10183594 0.95527344 -0.55914062 0.48476563 0 0 Z " fill="#2E2E2E" transform="translate(282,285)"/>
<path d="M0 0 C0.66 0.33 1.32 0.66 2 1 C0.50923566 4.2826932 -1.38620321 6.93077441 -3.625 9.75 C-4.57246094 10.94882813 -4.57246094 10.94882813 -5.5390625 12.171875 C-6.02117187 12.77515625 -6.50328125 13.3784375 -7 14 C-7 10.35382993 -5.96590116 8.9473134 -4.0625 5.875 C-3.51722656 4.98554688 -2.97195313 4.09609375 -2.41015625 3.1796875 C-1 1 -1 1 0 0 Z " fill="#2C2C2C" transform="translate(296,245)"/>
<path d="M0 0 C2.68234235 2.42457972 4.36856725 5.07510397 6.1875 8.1875 C6.71730469 9.08855469 7.24710938 9.98960937 7.79296875 10.91796875 C8.19128906 11.60503906 8.58960938 12.29210937 9 13 C5.6227555 11.60724746 4.12929695 10.17726069 2.25 7.0625 C1.82203125 6.37285156 1.3940625 5.68320312 0.953125 4.97265625 C0 3 0 3 0 0 Z " fill="#282828" transform="translate(237,328)"/>
<path d="M0 0 C2.475 0.495 2.475 0.495 5 1 C5 2.32 5 3.64 5 5 C3.35 5 1.7 5 0 5 C0 3.35 0 1.7 0 0 Z " fill="#270707" transform="translate(251,388)"/>
<path d="M0 0 C3.05398761 1.19887943 5.30831155 2.96504483 7.75 5.125 C8.67039062 5.93324219 8.67039062 5.93324219 9.609375 6.7578125 C10.06828125 7.16773438 10.5271875 7.57765625 11 8 C10.01 8.495 10.01 8.495 9 9 C8.45730469 8.59007812 7.91460937 8.18015625 7.35546875 7.7578125 C6.64003906 7.21898437 5.92460937 6.68015625 5.1875 6.125 C4.47980469 5.59132812 3.77210938 5.05765625 3.04296875 4.5078125 C1.39543703 3.29185219 -0.29624211 2.13583859 -2 1 C-1.34 0.67 -0.68 0.34 0 0 Z " fill="#1F1F1F" transform="translate(317,243)"/>
<path d="M0 0 C0.99 0.33 1.98 0.66 3 1 C-0.02272532 4.25524265 -3.25718301 6.61820737 -7 9 C-7.66 8.67 -8.32 8.34 -9 8 C-6.03 5.36 -3.06 2.72 0 0 Z " fill="#1E1E1E" transform="translate(181,243)"/>
<path d="M0 0 C3.68006822 3.38168431 5.9785845 6.42521756 8 11 C7.01 11 6.02 11 5 11 C4.16151196 9.54462432 3.32936066 8.08559627 2.5 6.625 C1.80390625 5.40683594 1.80390625 5.40683594 1.09375 4.1640625 C0 2 0 2 0 0 Z " fill="#363636" transform="translate(212,265)"/>
<path d="M0 0 C1.32 0.33 2.64 0.66 4 1 C3.34 2.32 2.68 3.64 2 5 C0.68 4.34 -0.64 3.68 -2 3 C-1.34 2.01 -0.68 1.02 0 0 Z " fill="#0C0202" transform="translate(350,341)"/>
<path d="M0 0 C2.475 0.495 2.475 0.495 5 1 C5.33 2.65 5.66 4.3 6 6 C3.37812506 4.95125002 2.20628639 4.35068687 0.75 1.875 C0.5025 1.25625 0.255 0.6375 0 0 Z " fill="#270707" transform="translate(164,366)"/>
<path d="M0 0 C2.25 -0.25 2.25 -0.25 5 0 C7.3125 2 7.3125 2 9 4 C8.67 4.66 8.34 5.32 8 6 C6.66402348 5.19185349 5.331275 4.37836819 4 3.5625 C3.2575 3.11003906 2.515 2.65757812 1.75 2.19140625 C1.1725 1.79824219 0.595 1.40507812 0 1 C0 0.67 0 0.34 0 0 Z " fill="#343434" transform="translate(238,256)"/>
<path d="M0 0 C2.64 1.98 5.28 3.96 8 6 C7.01 6.33 6.02 6.66 5 7 C3.29115995 5.37660195 1.62553283 3.70680947 0 2 C0 1.34 0 0.68 0 0 Z " fill="#3E3E3E" transform="translate(234,245)"/>
<path d="M0 0 C0.33 0 0.66 0 1 0 C1 2.97 1 5.94 1 9 C0.34 8.01 -0.32 7.02 -1 6 C-1.99 6.495 -1.99 6.495 -3 7 C-1.125 2.25 -1.125 2.25 0 0 Z " fill="#E55E3D" transform="translate(101,159)"/>
</svg>
